<svg width="24" height="24" viewBox="0 0 24 24" fill="none" xmlns="http://www.w3.org/2000/svg">
<path d="M19.5 13.4995C19.5019 13.8053 19.409 14.1042 19.2341 14.355C19.0591 14.6058 18.8108 14.7963 18.5232 14.9001L13.681 16.6814L11.8997 21.5198C11.7942 21.8064 11.6034 22.0537 11.3529 22.2284C11.1025 22.4031 10.8045 22.4968 10.4991 22.4968C10.1937 22.4968 9.89571 22.4031 9.64525 22.2284C9.39479 22.0537 9.20395 21.8064 9.09846 21.5198L7.31253 16.687L2.47315 14.9058C2.18659 14.8003 1.93927 14.6094 1.76458 14.359C1.58988 14.1085 1.49622 13.8105 1.49622 13.5051C1.49622 13.1998 1.58988 12.9018 1.76458 12.6513C1.93927 12.4008 2.18659 12.21 2.47315 12.1045L7.31534 10.3233L9.09659 5.48482C9.20207 5.19826 9.39292 4.95094 9.64338 4.77625C9.89384 4.60155 10.1919 4.50789 10.4972 4.50789C10.8026 4.50789 11.1006 4.60155 11.3511 4.77625C11.6015 4.95094 11.7924 5.19826 11.8978 5.48482L13.6791 10.327L18.5175 12.1083C18.8047 12.2107 19.0532 12.3993 19.2291 12.6483C19.4049 12.8973 19.4996 13.1946 19.5 13.4995ZM14.25 4.49951H15.75V5.99951C15.75 6.19842 15.829 6.38919 15.9697 6.52984C16.1103 6.67049 16.3011 6.74951 16.5 6.74951C16.6989 6.74951 16.8897 6.67049 17.0304 6.52984C17.171 6.38919 17.25 6.19842 17.25 5.99951V4.49951H18.75C18.9489 4.49951 19.1397 4.42049 19.2804 4.27984C19.421 4.13919 19.5 3.94842 19.5 3.74951C19.5 3.5506 19.421 3.35983 19.2804 3.21918C19.1397 3.07853 18.9489 2.99951 18.75 2.99951H17.25V1.49951C17.25 1.3006 17.171 1.10983 17.0304 0.969182C16.8897 0.828529 16.6989 0.749512 16.5 0.749512C16.3011 0.749512 16.1103 0.828529 15.9697 0.969182C15.829 1.10983 15.75 1.3006 15.75 1.49951V2.99951H14.25C14.0511 2.99951 13.8603 3.07853 13.7197 3.21918C13.579 3.35983 13.5 3.5506 13.5 3.74951C13.5 3.94842 13.579 4.13919 13.7197 4.27984C13.8603 4.42049 14.0511 4.49951 14.25 4.49951ZM22.5 7.49951H21.75V6.74951C21.75 6.5506 21.671 6.35983 21.5304 6.21918C21.3897 6.07853 21.1989 5.99951 21 5.99951C20.8011 5.99951 20.6103 6.07853 20.4697 6.21918C20.329 6.35983 20.25 6.5506 20.25 6.74951V7.49951H19.5C19.3011 7.49951 19.1103 7.57853 18.9697 7.71918C18.829 7.85983 18.75 8.0506 18.75 8.24951C18.75 8.44842 18.829 8.63919 18.9697 8.77984C19.1103 8.92049 19.3011 8.99951 19.5 8.99951H20.25V9.74951C20.25 9.94842 20.329 10.1392 20.4697 10.2798C20.6103 10.4205 20.8011 10.4995 21 10.4995C21.1989 10.4995 21.3897 10.4205 21.5304 10.2798C21.671 10.1392 21.75 9.94842 21.75 9.74951V8.99951H22.5C22.6989 8.99951 22.8897 8.92049 23.0304 8.77984C23.171 8.63919 23.25 8.44842 23.25 8.24951C23.25 8.0506 23.171 7.85983 23.0304 7.71918C22.8897 7.57853 22.6989 7.49951 22.5 7.49951Z" fill="#6C1EEB"/>
</svg>