<svg width="24" height="25" viewBox="0 0 24 25" fill="none" xmlns="http://www.w3.org/2000/svg">
<path d="M20.19 14.56L19.06 12.68C18.81 12.27 18.59 11.48 18.59 11V9.13005C18.59 5.50005 15.64 2.55005 12.02 2.55005C8.38996 2.56005 5.43996 5.50005 5.43996 9.13005V10.99C5.43996 11.47 5.21996 12.26 4.97996 12.67L3.84996 14.55C3.41996 15.28 3.31996 16.11 3.58996 16.83C3.85996 17.56 4.46996 18.14 5.26996 18.4C6.34996 18.76 7.43996 19.02 8.54996 19.21C8.65996 19.23 8.76996 19.24 8.87996 19.26L9.31996 19.32C9.57996 19.3601 9.83996 19.39 10.11 19.41C11.3705 19.5289 12.6394 19.5289 13.9 19.41C14.13 19.39 14.36 19.3701 14.58 19.34C14.76 19.32 14.94 19.3001 15.12 19.2701C15.23 19.26 15.34 19.24 15.45 19.22C16.57 19.04 17.68 18.76 18.76 18.4C19.1336 18.2751 19.4746 18.0685 19.7583 17.7952C20.042 17.5219 20.2612 17.1887 20.4 16.82C20.68 16.07 20.6 15.25 20.19 14.56ZM12.75 10.5C12.75 10.7016 12.6699 10.8949 12.5274 11.0374C12.3848 11.18 12.1915 11.26 11.99 11.26C11.7884 11.26 11.5951 11.18 11.4526 11.0374C11.31 10.8949 11.23 10.7016 11.23 10.5V7.40005C11.23 7.19848 11.31 7.00518 11.4526 6.86265C11.5951 6.72012 11.7884 6.64005 11.99 6.64005C12.1915 6.64005 12.3848 6.72012 12.5274 6.86265C12.6699 7.00518 12.75 7.19848 12.75 7.40005V10.5ZM14.83 20.51C14.6197 21.0922 14.2352 21.5955 13.7289 21.9515C13.2226 22.3076 12.6189 22.4991 12 22.5C11.21 22.5 10.43 22.18 9.87996 21.6101C9.55996 21.3101 9.31996 20.91 9.17996 20.5C9.30996 20.5201 9.43996 20.53 9.57996 20.55C9.80996 20.58 10.05 20.61 10.29 20.63C10.86 20.68 11.44 20.71 12.02 20.71C12.59 20.71 13.16 20.68 13.72 20.63C13.93 20.61 14.14 20.6 14.34 20.57L14.83 20.51Z" fill="#2C2C2C"/>
<circle cx="18" cy="5.5" r="4" fill="#EB4335"/>
</svg>
