<svg width="54" height="44" viewBox="0 0 54 44" fill="none" xmlns="http://www.w3.org/2000/svg">
<path d="M53.25 0.72998L50.85 1.43311L7.8975 14.5H0.75V29.5H7.89938L11.5894 30.6137L11.5331 30.7881V30.8481C10.3294 34.8081 12.5588 39.2106 16.6894 40.4556C16.7081 40.4612 16.7306 40.45 16.7456 40.4556C20.7262 41.665 25.1325 39.4619 26.3569 35.2994L26.4131 35.1231L50.85 42.5669L53.25 43.2681V0.72998ZM49.5 5.76998V38.23L8.775 25.8062L8.54437 25.75H4.5V18.25H8.5425L8.77688 18.1937L49.5 5.76998ZM15.1631 31.7256L22.8394 34.0131L22.7831 34.1875V34.2437C22.1381 36.4375 19.8094 37.51 17.8031 36.8819C15.6094 36.2387 14.4806 33.9681 15.1069 31.96V31.9037L15.1631 31.7256Z" fill="#222222"/>
</svg>
