<svg width="20" height="22" viewBox="0 0 20 22" fill="none" xmlns="http://www.w3.org/2000/svg">
<path d="M19.0702 4.23C17.4602 4.07 15.8502 3.95 14.2302 3.86V3.85L14.0102 2.55C13.8602 1.63 13.6402 0.25 11.3002 0.25H8.68016C6.35016 0.25 6.13016 1.57 5.97016 2.54L5.76016 3.82C4.83016 3.88 3.90016 3.94 2.97016 4.03L0.930158 4.23C0.510158 4.27 0.210158 4.64 0.250158 5.05C0.290158 5.46 0.650157 5.76 1.07016 5.72L3.11016 5.52C8.35016 5 13.6302 5.2 18.9302 5.73H19.0102C19.3902 5.73 19.7202 5.44 19.7602 5.05C19.7752 4.85024 19.7114 4.65253 19.5824 4.49925C19.4535 4.34596 19.2696 4.24931 19.0702 4.23ZM17.2302 7.14C16.9902 6.89 16.6602 6.75 16.3202 6.75H3.68016C3.34016 6.75 3.00016 6.89 2.77016 7.14C2.54016 7.39 2.41016 7.73 2.43016 8.08L3.05016 18.34C3.16016 19.86 3.30016 21.76 6.79016 21.76H13.2102C16.7002 21.76 16.8402 19.87 16.9502 18.34L17.5702 8.09C17.5902 7.73 17.4602 7.39 17.2302 7.14ZM11.6602 16.75H8.33016C7.92016 16.75 7.58016 16.41 7.58016 16C7.58016 15.59 7.92016 15.25 8.33016 15.25H11.6602C12.0702 15.25 12.4102 15.59 12.4102 16C12.4102 16.41 12.0702 16.75 11.6602 16.75ZM12.5002 12.75H7.50016C7.09016 12.75 6.75016 12.41 6.75016 12C6.75016 11.59 7.09016 11.25 7.50016 11.25H12.5002C12.9102 11.25 13.2502 11.59 13.2502 12C13.2502 12.41 12.9102 12.75 12.5002 12.75Z" fill="#EB4335"/>
</svg>
