<svg width="20" height="20" viewBox="0 0 20 20" fill="none" xmlns="http://www.w3.org/2000/svg">
<path d="M10.0002 12C4.99016 12 0.910156 15.36 0.910156 19.5C0.910156 19.78 1.13016 20 1.41016 20H18.5902C18.8702 20 19.0902 19.78 19.0902 19.5C19.0902 15.36 15.0102 12 10.0002 12ZM14.8502 3.79801C14.7302 3.30801 14.5302 2.82801 14.2502 2.38801C14.0602 2.06801 13.8102 1.74801 13.5402 1.46801C12.6685 0.594774 11.5026 0.0777923 10.2702 0.0180093C8.91016 -0.0719907 7.52016 0.428009 6.47016 1.46801C5.99404 1.93928 5.61833 2.50212 5.36568 3.12256C5.11304 3.743 4.98869 4.4082 5.00016 5.07801C5.01016 6.32801 5.51016 7.57801 6.46016 8.53801C7.12016 9.19801 7.93016 9.63801 8.80016 9.83801C9.27016 9.95801 9.77016 10.018 10.2702 9.97801C11.4602 9.92801 12.6202 9.45801 13.5302 8.53801C14.1415 7.92966 14.5845 7.17309 14.8159 6.34226C15.0472 5.51143 15.059 4.63477 14.8502 3.79801ZM12.0002 6.99801C11.6402 7.35801 11.0402 7.35801 10.6802 6.99801L9.99016 6.30801L9.33016 6.96801C8.97016 7.32801 8.37016 7.32801 8.01016 6.96801C7.92278 6.88202 7.8532 6.77966 7.80541 6.66677C7.75761 6.55387 7.73254 6.43267 7.73161 6.31008C7.73068 6.18749 7.75392 6.06592 7.8 5.95232C7.84608 5.83872 7.91409 5.73531 8.00016 5.64801L8.66016 4.98801L8.02016 4.36801C7.84686 4.18801 7.75004 3.94787 7.75004 3.69801C7.75004 3.44815 7.84686 3.208 8.02016 3.02801C8.39016 2.66801 8.98016 2.66801 9.36016 3.02801L9.98016 3.66801L10.6502 2.99801C11.0102 2.63801 11.6002 2.63801 11.9702 2.99801C12.3302 3.35801 12.3302 3.95801 11.9702 4.31801L11.3102 4.97801L12.0002 5.67801C12.3602 6.03801 12.3602 6.63801 12.0002 6.99801Z" fill="#8A8A8A"/>
</svg>
