<svg width="8" height="7" viewBox="0 0 8 7" fill="none" xmlns="http://www.w3.org/2000/svg">
<path d="M0.903375 3.66231C0.903375 3.23031 0.983375 2.82497 1.14338 2.44631C1.30871 2.06764 1.53004 1.73697 1.80738 1.45431C2.09004 1.17164 2.41804 0.950306 2.79138 0.790306C3.16471 0.624973 3.56471 0.542306 3.99138 0.542306C4.41804 0.542306 4.82071 0.624973 5.19938 0.790306C5.57804 0.950306 5.90604 1.17164 6.18338 1.45431C6.46604 1.73697 6.68738 2.06764 6.84738 2.44631C7.01271 2.82497 7.09538 3.23031 7.09538 3.66231C7.09538 4.08897 7.01271 4.48897 6.84738 4.86231C6.68738 5.23564 6.46604 5.56364 6.18338 5.84631C5.90604 6.12897 5.57804 6.35297 5.19938 6.51831C4.82071 6.67831 4.41804 6.75831 3.99138 6.75831C3.56471 6.75831 3.16471 6.67831 2.79138 6.51831C2.41804 6.35297 2.09004 6.12897 1.80738 5.84631C1.53004 5.56364 1.30871 5.23564 1.14338 4.86231C0.983375 4.48897 0.903375 4.08897 0.903375 3.66231Z" fill="#2C2C2C"/>
</svg>
