<svg width="24" height="24" viewBox="0 0 24 24" fill="none" xmlns="http://www.w3.org/2000/svg">
<path d="M22 13V15C22 20 20 22 15 22H9C4 22 2 20 2 15V13.48" stroke="#3C7B79" stroke-width="1.5" stroke-linecap="round" stroke-linejoin="round"/>
<path d="M11 2H9C4 2 2 4 2 9" stroke="#3C7B79" stroke-width="1.5" stroke-linecap="round" stroke-linejoin="round"/>
<path d="M19.93 9.01001L20.98 7.96001C22.34 6.60001 22.98 5.02001 20.98 3.02001C18.98 1.02001 17.4 1.66001 16.04 3.02001L8.16002 10.9C7.82223 11.2705 7.59377 11.7275 7.50002 12.22L7.07002 15.23C7.01779 15.464 7.0255 15.7075 7.09243 15.9377C7.15937 16.168 7.28336 16.3776 7.45291 16.5471C7.62246 16.7167 7.83208 16.8407 8.06233 16.9076C8.29258 16.9745 8.536 16.9822 8.77002 16.93L11.78 16.5C12.2711 16.402 12.727 16.1741 13.1 15.84L16.28 12.66L17.01 11.93" stroke="#3C7B79" stroke-width="1.5" stroke-linecap="round" stroke-linejoin="round"/>
<path d="M14.91 4.1499C15.2416 5.32737 15.8699 6.39997 16.7349 7.26495C17.5999 8.12993 18.6725 8.75831 19.85 9.0899" stroke="#3C7B79" stroke-width="1.5" stroke-linecap="round" stroke-linejoin="round"/>
</svg>
