<svg width="18" height="18" viewBox="0 0 18 18" fill="none" xmlns="http://www.w3.org/2000/svg">
<path d="M2 18C1.45 18 0.979002 17.804 0.587002 17.412C0.195002 17.02 -0.000664969 16.5493 1.69779e-06 16V2C1.69779e-06 1.45 0.196002 0.979 0.588002 0.587C0.980002 0.195 1.45067 -0.000666876 2 -2.09555e-07H16C16.55 -2.09555e-07 17.021 0.196 17.413 0.588C17.805 0.98 18.0007 1.45067 18 2V16C18 16.55 17.804 17.021 17.412 17.413C17.02 17.805 16.5493 18.0007 16 18H2ZM2 16H16V2H2V16ZM3 14H15L11.25 9L8.25 13L6 10L3 14Z" fill="#6A6A6A"/>
</svg>
