<svg width="848" height="600" viewBox="0 0 848 600" fill="none" xmlns="http://www.w3.org/2000/svg">
<rect width="848" height="600" fill="white"/>
<path d="M50.944 122.252C49.264 122.252 47.752 121.964 46.408 121.388C45.064 120.788 44.008 119.948 43.24 118.868C42.472 117.788 42.088 116.528 42.088 115.088H46.48C46.576 116.168 46.996 117.056 47.74 117.752C48.508 118.448 49.576 118.796 50.944 118.796C52.36 118.796 53.464 118.46 54.256 117.788C55.048 117.092 55.444 116.204 55.444 115.124C55.444 114.284 55.192 113.6 54.688 113.072C54.208 112.544 53.596 112.136 52.852 111.848C52.132 111.56 51.124 111.248 49.828 110.912C48.196 110.48 46.864 110.048 45.832 109.616C44.824 109.16 43.96 108.464 43.24 107.528C42.52 106.592 42.16 105.344 42.16 103.784C42.16 102.344 42.52 101.084 43.24 100.004C43.96 98.924 44.968 98.096 46.264 97.52C47.56 96.944 49.06 96.656 50.764 96.656C53.188 96.656 55.168 97.268 56.704 98.492C58.264 99.692 59.128 101.348 59.296 103.46H54.76C54.688 102.548 54.256 101.768 53.464 101.12C52.672 100.472 51.628 100.148 50.332 100.148C49.156 100.148 48.196 100.448 47.452 101.048C46.708 101.648 46.336 102.512 46.336 103.64C46.336 104.408 46.564 105.044 47.02 105.548C47.5 106.028 48.1 106.412 48.82 106.7C49.54 106.988 50.524 107.3 51.772 107.636C53.428 108.092 54.772 108.548 55.804 109.004C56.86 109.46 57.748 110.168 58.468 111.128C59.212 112.064 59.584 113.324 59.584 114.908C59.584 116.18 59.236 117.38 58.54 118.508C57.868 119.636 56.872 120.548 55.552 121.244C54.256 121.916 52.72 122.252 50.944 122.252ZM82.6066 111.596C82.6066 112.34 82.5586 113.012 82.4626 113.612H67.3066C67.4266 115.196 68.0146 116.468 69.0706 117.428C70.1266 118.388 71.4226 118.868 72.9586 118.868C75.1666 118.868 76.7266 117.944 77.6386 116.096H82.0666C81.4666 117.92 80.3746 119.42 78.7906 120.596C77.2306 121.748 75.2866 122.324 72.9586 122.324C71.0626 122.324 69.3586 121.904 67.8466 121.064C66.3586 120.2 65.1826 119 64.3186 117.464C63.4786 115.904 63.0586 114.104 63.0586 112.064C63.0586 110.024 63.4666 108.236 64.2826 106.7C65.1226 105.14 66.2866 103.94 67.7746 103.1C69.2866 102.26 71.0146 101.84 72.9586 101.84C74.8306 101.84 76.4986 102.248 77.9626 103.064C79.4266 103.88 80.5666 105.032 81.3826 106.52C82.1986 107.984 82.6066 109.676 82.6066 111.596ZM78.3226 110.3C78.2986 108.788 77.7586 107.576 76.7026 106.664C75.6466 105.752 74.3386 105.296 72.7786 105.296C71.3626 105.296 70.1506 105.752 69.1426 106.664C68.1346 107.552 67.5346 108.764 67.3426 110.3H78.3226ZM90.7493 95.36V122H86.6453V95.36H90.7493ZM114.318 111.596C114.318 112.34 114.27 113.012 114.174 113.612H99.0175C99.1375 115.196 99.7255 116.468 100.782 117.428C101.838 118.388 103.134 118.868 104.67 118.868C106.878 118.868 108.438 117.944 109.35 116.096H113.777C113.178 117.92 112.086 119.42 110.502 120.596C108.942 121.748 106.998 122.324 104.67 122.324C102.774 122.324 101.07 121.904 99.5575 121.064C98.0695 120.2 96.8935 119 96.0295 117.464C95.1895 115.904 94.7695 114.104 94.7695 112.064C94.7695 110.024 95.1775 108.236 95.9935 106.7C96.8335 105.14 97.9975 103.94 99.4855 103.1C100.998 102.26 102.726 101.84 104.67 101.84C106.542 101.84 108.21 102.248 109.674 103.064C111.138 103.88 112.278 105.032 113.094 106.52C113.91 107.984 114.318 109.676 114.318 111.596ZM110.034 110.3C110.01 108.788 109.47 107.576 108.414 106.664C107.358 105.752 106.05 105.296 104.49 105.296C103.074 105.296 101.862 105.752 100.854 106.664C99.8455 107.552 99.2455 108.764 99.0535 110.3H110.034ZM116.988 112.064C116.988 110.024 117.396 108.236 118.212 106.7C119.052 105.14 120.204 103.94 121.668 103.1C123.132 102.26 124.812 101.84 126.708 101.84C129.108 101.84 131.088 102.416 132.648 103.568C134.232 104.696 135.3 106.316 135.852 108.428H131.424C131.064 107.444 130.488 106.676 129.696 106.124C128.904 105.572 127.908 105.296 126.708 105.296C125.028 105.296 123.684 105.896 122.676 107.096C121.692 108.272 121.2 109.928 121.2 112.064C121.2 114.2 121.692 115.868 122.676 117.068C123.684 118.268 125.028 118.868 126.708 118.868C129.084 118.868 130.656 117.824 131.424 115.736H135.852C135.276 117.752 134.196 119.36 132.612 120.56C131.028 121.736 129.06 122.324 126.708 122.324C124.812 122.324 123.132 121.904 121.668 121.064C120.204 120.2 119.052 119 118.212 117.464C117.396 115.904 116.988 114.104 116.988 112.064ZM144.73 105.512V116.492C144.73 117.236 144.898 117.776 145.234 118.112C145.594 118.424 146.194 118.58 147.034 118.58H149.554V122H146.314C144.466 122 143.05 121.568 142.066 120.704C141.082 119.84 140.59 118.436 140.59 116.492V105.512H138.25V102.164H140.59V97.232H144.73V102.164H149.554V105.512H144.73ZM167.476 105.512V116.492C167.476 117.236 167.644 117.776 167.98 118.112C168.34 118.424 168.94 118.58 169.78 118.58H172.3V122H169.06C167.212 122 165.796 121.568 164.812 120.704C163.828 119.84 163.336 118.436 163.336 116.492V105.512H160.996V102.164H163.336V97.232H167.476V102.164H172.3V105.512H167.476ZM193.939 102.164L181.771 131.324H177.523L181.555 121.676L173.743 102.164H178.315L183.895 117.284L189.691 102.164H193.939ZM201.14 105.08C201.836 104.168 202.784 103.4 203.984 102.776C205.184 102.152 206.54 101.84 208.052 101.84C209.78 101.84 211.352 102.272 212.768 103.136C214.208 103.976 215.336 105.164 216.152 106.7C216.968 108.236 217.376 110 217.376 111.992C217.376 113.984 216.968 115.772 216.152 117.356C215.336 118.916 214.208 120.14 212.768 121.028C211.352 121.892 209.78 122.324 208.052 122.324C206.54 122.324 205.196 122.024 204.02 121.424C202.844 120.8 201.884 120.032 201.14 119.12V131.432H197.036V102.164H201.14V105.08ZM213.2 111.992C213.2 110.624 212.912 109.448 212.336 108.464C211.784 107.456 211.04 106.7 210.104 106.196C209.192 105.668 208.208 105.404 207.152 105.404C206.12 105.404 205.136 105.668 204.2 106.196C203.288 106.724 202.544 107.492 201.968 108.5C201.416 109.508 201.14 110.696 201.14 112.064C201.14 113.432 201.416 114.632 201.968 115.664C202.544 116.672 203.288 117.44 204.2 117.968C205.136 118.496 206.12 118.76 207.152 118.76C208.208 118.76 209.192 118.496 210.104 117.968C211.04 117.416 211.784 116.624 212.336 115.592C212.912 114.56 213.2 113.36 213.2 111.992ZM239.614 111.596C239.614 112.34 239.566 113.012 239.47 113.612H224.314C224.434 115.196 225.022 116.468 226.078 117.428C227.134 118.388 228.43 118.868 229.966 118.868C232.174 118.868 233.734 117.944 234.646 116.096H239.074C238.474 117.92 237.382 119.42 235.798 120.596C234.238 121.748 232.294 122.324 229.966 122.324C228.07 122.324 226.366 121.904 224.854 121.064C223.366 120.2 222.19 119 221.326 117.464C220.486 115.904 220.066 114.104 220.066 112.064C220.066 110.024 220.474 108.236 221.29 106.7C222.13 105.14 223.294 103.94 224.782 103.1C226.294 102.26 228.022 101.84 229.966 101.84C231.838 101.84 233.506 102.248 234.97 103.064C236.434 103.88 237.574 105.032 238.39 106.52C239.206 107.984 239.614 109.676 239.614 111.596ZM235.33 110.3C235.306 108.788 234.766 107.576 233.71 106.664C232.654 105.752 231.346 105.296 229.786 105.296C228.37 105.296 227.158 105.752 226.15 106.664C225.142 107.552 224.542 108.764 224.35 110.3H235.33ZM261.609 122.324C259.737 122.324 258.045 121.904 256.533 121.064C255.021 120.2 253.833 119 252.969 117.464C252.105 115.904 251.673 114.104 251.673 112.064C251.673 110.048 252.117 108.26 253.005 106.7C253.893 105.14 255.105 103.94 256.641 103.1C258.177 102.26 259.893 101.84 261.789 101.84C263.685 101.84 265.401 102.26 266.937 103.1C268.473 103.94 269.685 105.14 270.573 106.7C271.461 108.26 271.905 110.048 271.905 112.064C271.905 114.08 271.449 115.868 270.537 117.428C269.625 118.988 268.377 120.2 266.793 121.064C265.233 121.904 263.505 122.324 261.609 122.324ZM261.609 118.76C262.665 118.76 263.649 118.508 264.561 118.004C265.497 117.5 266.253 116.744 266.829 115.736C267.405 114.728 267.693 113.504 267.693 112.064C267.693 110.624 267.417 109.412 266.865 108.428C266.313 107.42 265.581 106.664 264.669 106.16C263.757 105.656 262.773 105.404 261.717 105.404C260.661 105.404 259.677 105.656 258.765 106.16C257.877 106.664 257.169 107.42 256.641 108.428C256.113 109.412 255.849 110.624 255.849 112.064C255.849 114.2 256.389 115.856 257.469 117.032C258.573 118.184 259.953 118.76 261.609 118.76ZM284.278 105.512H280.606V122H276.466V105.512H274.126V102.164H276.466V100.76C276.466 98.48 277.066 96.824 278.266 95.792C279.49 94.736 281.398 94.208 283.99 94.208V97.628C282.742 97.628 281.866 97.868 281.362 98.348C280.858 98.804 280.606 99.608 280.606 100.76V102.164H284.278V105.512ZM295.898 112.064C295.898 110.024 296.306 108.236 297.122 106.7C297.962 105.14 299.114 103.94 300.578 103.1C302.042 102.26 303.722 101.84 305.618 101.84C308.018 101.84 309.998 102.416 311.558 103.568C313.142 104.696 314.21 106.316 314.762 108.428H310.334C309.974 107.444 309.398 106.676 308.606 106.124C307.814 105.572 306.818 105.296 305.618 105.296C303.938 105.296 302.594 105.896 301.586 107.096C300.602 108.272 300.11 109.928 300.11 112.064C300.11 114.2 300.602 115.868 301.586 117.068C302.594 118.268 303.938 118.868 305.618 118.868C307.994 118.868 309.566 117.824 310.334 115.736H314.762C314.186 117.752 313.106 119.36 311.522 120.56C309.938 121.736 307.97 122.324 305.618 122.324C303.722 122.324 302.042 121.904 300.578 121.064C299.114 120.2 297.962 119 297.122 117.464C296.306 115.904 295.898 114.104 295.898 112.064ZM317.484 111.992C317.484 110 317.892 108.236 318.708 106.7C319.548 105.164 320.676 103.976 322.092 103.136C323.532 102.272 325.116 101.84 326.844 101.84C328.404 101.84 329.76 102.152 330.912 102.776C332.088 103.376 333.024 104.132 333.72 105.044V102.164H337.86V122H333.72V119.048C333.024 119.984 332.076 120.764 330.876 121.388C329.676 122.012 328.308 122.324 326.772 122.324C325.068 122.324 323.508 121.892 322.092 121.028C320.676 120.14 319.548 118.916 318.708 117.356C317.892 115.772 317.484 113.984 317.484 111.992ZM333.72 112.064C333.72 110.696 333.432 109.508 332.856 108.5C332.304 107.492 331.572 106.724 330.66 106.196C329.748 105.668 328.764 105.404 327.708 105.404C326.652 105.404 325.668 105.668 324.756 106.196C323.844 106.7 323.1 107.456 322.524 108.464C321.972 109.448 321.696 110.624 321.696 111.992C321.696 113.36 321.972 114.56 322.524 115.592C323.1 116.624 323.844 117.416 324.756 117.968C325.692 118.496 326.676 118.76 327.708 118.76C328.764 118.76 329.748 118.496 330.66 117.968C331.572 117.44 332.304 116.672 332.856 115.664C333.432 114.632 333.72 113.432 333.72 112.064ZM367.263 101.84C368.823 101.84 370.215 102.164 371.439 102.812C372.687 103.46 373.659 104.42 374.355 105.692C375.075 106.964 375.435 108.5 375.435 110.3V122H371.367V110.912C371.367 109.136 370.923 107.78 370.035 106.844C369.147 105.884 367.935 105.404 366.399 105.404C364.863 105.404 363.639 105.884 362.727 106.844C361.839 107.78 361.395 109.136 361.395 110.912V122H357.327V110.912C357.327 109.136 356.883 107.78 355.995 106.844C355.107 105.884 353.895 105.404 352.359 105.404C350.823 105.404 349.599 105.884 348.687 106.844C347.799 107.78 347.355 109.136 347.355 110.912V122H343.251V102.164H347.355V104.432C348.027 103.616 348.879 102.98 349.911 102.524C350.943 102.068 352.047 101.84 353.223 101.84C354.807 101.84 356.223 102.176 357.471 102.848C358.719 103.52 359.679 104.492 360.351 105.764C360.951 104.564 361.887 103.616 363.159 102.92C364.431 102.2 365.799 101.84 367.263 101.84ZM384.761 105.08C385.457 104.168 386.405 103.4 387.605 102.776C388.805 102.152 390.161 101.84 391.673 101.84C393.401 101.84 394.973 102.272 396.389 103.136C397.829 103.976 398.957 105.164 399.773 106.7C400.589 108.236 400.997 110 400.997 111.992C400.997 113.984 400.589 115.772 399.773 117.356C398.957 118.916 397.829 120.14 396.389 121.028C394.973 121.892 393.401 122.324 391.673 122.324C390.161 122.324 388.817 122.024 387.641 121.424C386.465 120.8 385.505 120.032 384.761 119.12V131.432H380.657V102.164H384.761V105.08ZM396.821 111.992C396.821 110.624 396.533 109.448 395.957 108.464C395.405 107.456 394.661 106.7 393.725 106.196C392.813 105.668 391.829 105.404 390.773 105.404C389.741 105.404 388.757 105.668 387.821 106.196C386.909 106.724 386.165 107.492 385.589 108.5C385.037 109.508 384.761 110.696 384.761 112.064C384.761 113.432 385.037 114.632 385.589 115.664C386.165 116.672 386.909 117.44 387.821 117.968C388.757 118.496 389.741 118.76 390.773 118.76C391.829 118.76 392.813 118.496 393.725 117.968C394.661 117.416 395.405 116.624 395.957 115.592C396.533 114.56 396.821 113.36 396.821 111.992ZM403.687 111.992C403.687 110 404.095 108.236 404.911 106.7C405.751 105.164 406.879 103.976 408.295 103.136C409.735 102.272 411.319 101.84 413.047 101.84C414.607 101.84 415.963 102.152 417.115 102.776C418.291 103.376 419.227 104.132 419.923 105.044V102.164H424.063V122H419.923V119.048C419.227 119.984 418.279 120.764 417.079 121.388C415.879 122.012 414.511 122.324 412.975 122.324C411.271 122.324 409.711 121.892 408.295 121.028C406.879 120.14 405.751 118.916 404.911 117.356C404.095 115.772 403.687 113.984 403.687 111.992ZM419.923 112.064C419.923 110.696 419.635 109.508 419.059 108.5C418.507 107.492 417.775 106.724 416.863 106.196C415.951 105.668 414.967 105.404 413.911 105.404C412.855 105.404 411.871 105.668 410.959 106.196C410.047 106.7 409.303 107.456 408.727 108.464C408.175 109.448 407.899 110.624 407.899 111.992C407.899 113.36 408.175 114.56 408.727 115.592C409.303 116.624 410.047 117.416 410.959 117.968C411.895 118.496 412.879 118.76 413.911 118.76C414.967 118.76 415.951 118.496 416.863 117.968C417.775 117.44 418.507 116.672 419.059 115.664C419.635 114.632 419.923 113.432 419.923 112.064ZM431.542 99.536C430.798 99.536 430.174 99.284 429.67 98.78C429.166 98.276 428.914 97.652 428.914 96.908C428.914 96.164 429.166 95.54 429.67 95.036C430.174 94.532 430.798 94.28 431.542 94.28C432.262 94.28 432.874 94.532 433.378 95.036C433.882 95.54 434.134 96.164 434.134 96.908C434.134 97.652 433.882 98.276 433.378 98.78C432.874 99.284 432.262 99.536 431.542 99.536ZM433.558 102.164V122H429.454V102.164H433.558ZM446.938 101.84C448.474 101.84 449.83 102.152 451.006 102.776C452.206 103.376 453.142 104.132 453.814 105.044V102.164H457.954V122.324C457.954 124.148 457.57 125.768 456.802 127.184C456.034 128.624 454.918 129.752 453.454 130.568C452.014 131.384 450.286 131.792 448.27 131.792C445.582 131.792 443.35 131.156 441.574 129.884C439.798 128.636 438.79 126.932 438.55 124.772H442.618C442.93 125.804 443.59 126.632 444.598 127.256C445.63 127.904 446.854 128.228 448.27 128.228C449.926 128.228 451.258 127.724 452.266 126.716C453.298 125.708 453.814 124.244 453.814 122.324V119.012C453.118 119.948 452.17 120.74 450.97 121.388C449.794 122.012 448.45 122.324 446.938 122.324C445.21 122.324 443.626 121.892 442.186 121.028C440.77 120.14 439.642 118.916 438.802 117.356C437.986 115.772 437.578 113.984 437.578 111.992C437.578 110 437.986 108.236 438.802 106.7C439.642 105.164 440.77 103.976 442.186 103.136C443.626 102.272 445.21 101.84 446.938 101.84ZM453.814 112.064C453.814 110.696 453.526 109.508 452.95 108.5C452.398 107.492 451.666 106.724 450.754 106.196C449.842 105.668 448.858 105.404 447.802 105.404C446.746 105.404 445.762 105.668 444.85 106.196C443.938 106.7 443.194 107.456 442.618 108.464C442.066 109.448 441.79 110.624 441.79 111.992C441.79 113.36 442.066 114.56 442.618 115.592C443.194 116.624 443.938 117.416 444.85 117.968C445.786 118.496 446.77 118.76 447.802 118.76C448.858 118.76 449.842 118.496 450.754 117.968C451.666 117.44 452.398 116.672 452.95 115.664C453.526 114.632 453.814 113.432 453.814 112.064ZM473.353 101.84C474.913 101.84 476.305 102.164 477.529 102.812C478.777 103.46 479.749 104.42 480.445 105.692C481.141 106.964 481.489 108.5 481.489 110.3V122H477.421V110.912C477.421 109.136 476.977 107.78 476.089 106.844C475.201 105.884 473.989 105.404 472.453 105.404C470.917 105.404 469.693 105.884 468.781 106.844C467.893 107.78 467.449 109.136 467.449 110.912V122H463.345V102.164H467.449V104.432C468.121 103.616 468.973 102.98 470.005 102.524C471.061 102.068 472.177 101.84 473.353 101.84Z" fill="#2C2C2C"/>
<path d="M168.5 307.25H143.5C136 307.25 131 303.5 131 294.75V277.25C131 268.5 136 264.75 143.5 264.75H168.5C176 264.75 181 268.5 181 277.25V294.75C181 303.5 176 307.25 168.5 307.25Z" stroke="#2C2C2C" stroke-width="3" stroke-miterlimit="10" stroke-linecap="round" stroke-linejoin="round"/>
<path d="M168.5 278.5L160.675 284.75C158.1 286.8 153.875 286.8 151.3 284.75L143.5 278.5" stroke="#2C2C2C" stroke-width="3" stroke-miterlimit="10" stroke-linecap="round" stroke-linejoin="round"/>
<path d="M110.868 340.32V357H108.132V345.576L103.044 357H101.148L96.036 345.576V357H93.3V340.32H96.252L102.108 353.4L107.94 340.32H110.868ZM113.552 350.328C113.552 349 113.824 347.824 114.368 346.8C114.928 345.776 115.68 344.984 116.624 344.424C117.584 343.848 118.64 343.56 119.792 343.56C120.832 343.56 121.736 343.768 122.504 344.184C123.288 344.584 123.912 345.088 124.376 345.696V343.776H127.136V357H124.376V355.032C123.912 355.656 123.28 356.176 122.48 356.592C121.68 357.008 120.768 357.216 119.744 357.216C118.608 357.216 117.568 356.928 116.624 356.352C115.68 355.76 114.928 354.944 114.368 353.904C113.824 352.848 113.552 351.656 113.552 350.328ZM124.376 350.376C124.376 349.464 124.184 348.672 123.8 348C123.432 347.328 122.944 346.816 122.336 346.464C121.728 346.112 121.072 345.936 120.368 345.936C119.664 345.936 119.008 346.112 118.4 346.464C117.792 346.8 117.296 347.304 116.912 347.976C116.544 348.632 116.36 349.416 116.36 350.328C116.36 351.24 116.544 352.04 116.912 352.728C117.296 353.416 117.792 353.944 118.4 354.312C119.024 354.664 119.68 354.84 120.368 354.84C121.072 354.84 121.728 354.664 122.336 354.312C122.944 353.96 123.432 353.448 123.8 352.776C124.184 352.088 124.376 351.288 124.376 350.376ZM132.122 342.024C131.626 342.024 131.21 341.856 130.874 341.52C130.538 341.184 130.37 340.768 130.37 340.272C130.37 339.776 130.538 339.36 130.874 339.024C131.21 338.688 131.626 338.52 132.122 338.52C132.602 338.52 133.01 338.688 133.346 339.024C133.682 339.36 133.85 339.776 133.85 340.272C133.85 340.768 133.682 341.184 133.346 341.52C133.01 341.856 132.602 342.024 132.122 342.024ZM133.466 343.776V357H130.73V343.776H133.466ZM139.794 339.24V357H137.058V339.24H139.794ZM144.778 342.024C144.282 342.024 143.866 341.856 143.53 341.52C143.194 341.184 143.026 340.768 143.026 340.272C143.026 339.776 143.194 339.36 143.53 339.024C143.866 338.688 144.282 338.52 144.778 338.52C145.258 338.52 145.666 338.688 146.002 339.024C146.338 339.36 146.506 339.776 146.506 340.272C146.506 340.768 146.338 341.184 146.002 341.52C145.666 341.856 145.258 342.024 144.778 342.024ZM146.122 343.776V357H143.386V343.776H146.122ZM156.386 343.56C157.426 343.56 158.354 343.776 159.17 344.208C160.002 344.64 160.65 345.28 161.114 346.128C161.578 346.976 161.81 348 161.81 349.2V357H159.098V349.608C159.098 348.424 158.802 347.52 158.21 346.896C157.618 346.256 156.81 345.936 155.786 345.936C154.762 345.936 153.946 346.256 153.338 346.896C152.746 347.52 152.45 348.424 152.45 349.608V357H149.714V343.776H152.45V345.288C152.898 344.744 153.466 344.32 154.154 344.016C154.858 343.712 155.602 343.56 156.386 343.56ZM170.628 343.56C171.652 343.56 172.556 343.768 173.34 344.184C174.14 344.584 174.764 345.088 175.212 345.696V343.776H177.972V357.216C177.972 358.432 177.716 359.512 177.204 360.456C176.692 361.416 175.948 362.168 174.972 362.712C174.012 363.256 172.86 363.528 171.516 363.528C169.724 363.528 168.236 363.104 167.052 362.256C165.868 361.424 165.196 360.288 165.036 358.848H167.748C167.956 359.536 168.396 360.088 169.068 360.504C169.756 360.936 170.572 361.152 171.516 361.152C172.62 361.152 173.508 360.816 174.18 360.144C174.868 359.472 175.212 358.496 175.212 357.216V355.008C174.748 355.632 174.116 356.16 173.316 356.592C172.532 357.008 171.636 357.216 170.628 357.216C169.476 357.216 168.42 356.928 167.46 356.352C166.516 355.76 165.764 354.944 165.204 353.904C164.66 352.848 164.388 351.656 164.388 350.328C164.388 349 164.66 347.824 165.204 346.8C165.764 345.776 166.516 344.984 167.46 344.424C168.42 343.848 169.476 343.56 170.628 343.56ZM175.212 350.376C175.212 349.464 175.02 348.672 174.636 348C174.268 347.328 173.78 346.816 173.172 346.464C172.564 346.112 171.908 345.936 171.204 345.936C170.5 345.936 169.844 346.112 169.236 346.464C168.628 346.8 168.132 347.304 167.748 347.976C167.38 348.632 167.196 349.416 167.196 350.328C167.196 351.24 167.38 352.04 167.748 352.728C168.132 353.416 168.628 353.944 169.236 354.312C169.86 354.664 170.516 354.84 171.204 354.84C171.908 354.84 172.564 354.664 173.172 354.312C173.78 353.96 174.268 353.448 174.636 352.776C175.02 352.088 175.212 351.288 175.212 350.376ZM190.536 339.24V357H187.8V339.24H190.536ZM195.52 342.024C195.024 342.024 194.608 341.856 194.272 341.52C193.936 341.184 193.768 340.768 193.768 340.272C193.768 339.776 193.936 339.36 194.272 339.024C194.608 338.688 195.024 338.52 195.52 338.52C196 338.52 196.408 338.688 196.744 339.024C197.08 339.36 197.248 339.776 197.248 340.272C197.248 340.768 197.08 341.184 196.744 341.52C196.408 341.856 196 342.024 195.52 342.024ZM196.864 343.776V357H194.128V343.776H196.864ZM205.256 357.216C204.216 357.216 203.28 357.032 202.448 356.664C201.632 356.28 200.984 355.768 200.504 355.128C200.024 354.472 199.768 353.744 199.736 352.944H202.568C202.616 353.504 202.88 353.976 203.36 354.36C203.856 354.728 204.472 354.912 205.208 354.912C205.976 354.912 206.568 354.768 206.984 354.48C207.416 354.176 207.632 353.792 207.632 353.328C207.632 352.832 207.392 352.464 206.912 352.224C206.448 351.984 205.704 351.72 204.68 351.432C203.688 351.16 202.88 350.896 202.256 350.64C201.632 350.384 201.088 349.992 200.624 349.464C200.176 348.936 199.952 348.24 199.952 347.376C199.952 346.672 200.16 346.032 200.576 345.456C200.992 344.864 201.584 344.4 202.352 344.064C203.136 343.728 204.032 343.56 205.04 343.56C206.544 343.56 207.752 343.944 208.664 344.712C209.592 345.464 210.088 346.496 210.152 347.808H207.416C207.368 347.216 207.128 346.744 206.696 346.392C206.264 346.04 205.68 345.864 204.944 345.864C204.224 345.864 203.672 346 203.288 346.272C202.904 346.544 202.712 346.904 202.712 347.352C202.712 347.704 202.84 348 203.096 348.24C203.352 348.48 203.664 348.672 204.032 348.816C204.4 348.944 204.944 349.112 205.664 349.32C206.624 349.576 207.408 349.84 208.016 350.112C208.64 350.368 209.176 350.752 209.624 351.264C210.072 351.776 210.304 352.456 210.32 353.304C210.32 354.056 210.112 354.728 209.696 355.32C209.28 355.912 208.688 356.376 207.92 356.712C207.168 357.048 206.28 357.216 205.256 357.216ZM216.469 346.008V353.328C216.469 353.824 216.581 354.184 216.805 354.408C217.045 354.616 217.445 354.72 218.005 354.72H219.685V357H217.525C216.293 357 215.349 356.712 214.693 356.136C214.037 355.56 213.709 354.624 213.709 353.328V346.008H212.149V343.776H213.709V340.488H216.469V343.776H219.685V346.008H216.469Z" fill="#2C2C2C"/>
<rect x="41" y="183" width="230" height="257" rx="7" stroke="#1CE124" stroke-width="2"/>
<path d="M436.5 278.5C436.5 288.175 428.1 296 417.75 296L415.425 298.8L414.05 300.45C412.875 301.85 410.625 301.55 409.85 299.875L406.5 292.5C401.95 289.3 399 284.225 399 278.5C399 268.825 407.4 261 417.75 261C425.3 261 431.825 265.175 434.75 271.175C435.875 273.4 436.5 275.875 436.5 278.5Z" stroke="black" stroke-width="3" stroke-linecap="round" stroke-linejoin="round"/>
<path d="M411.5 278.5H424M449 288.15C449 293.875 446.05 298.95 441.5 302.15L438.15 309.525C437.375 311.2 435.125 311.525 433.95 310.1L430.25 305.65C424.2 305.65 418.8 302.975 415.425 298.8L417.75 296C428.1 296 436.5 288.175 436.5 278.5C436.5 275.875 435.875 273.4 434.75 271.175C442.925 273.05 449 279.95 449 288.15Z" stroke="black" stroke-width="3" stroke-linecap="round" stroke-linejoin="round"/>
<path d="M337.796 357.168C336.676 357.168 335.668 356.976 334.772 356.592C333.876 356.192 333.172 355.632 332.66 354.912C332.148 354.192 331.892 353.352 331.892 352.392H334.82C334.884 353.112 335.164 353.704 335.66 354.168C336.172 354.632 336.884 354.864 337.796 354.864C338.74 354.864 339.476 354.64 340.004 354.192C340.532 353.728 340.796 353.136 340.796 352.416C340.796 351.856 340.628 351.4 340.292 351.048C339.972 350.696 339.564 350.424 339.068 350.232C338.588 350.04 337.916 349.832 337.052 349.608C335.964 349.32 335.076 349.032 334.388 348.744C333.716 348.44 333.14 347.976 332.66 347.352C332.18 346.728 331.94 345.896 331.94 344.856C331.94 343.896 332.18 343.056 332.66 342.336C333.14 341.616 333.812 341.064 334.676 340.68C335.54 340.296 336.54 340.104 337.676 340.104C339.292 340.104 340.612 340.512 341.636 341.328C342.676 342.128 343.252 343.232 343.364 344.64H340.34C340.292 344.032 340.004 343.512 339.476 343.08C338.948 342.648 338.252 342.432 337.388 342.432C336.604 342.432 335.964 342.632 335.468 343.032C334.972 343.432 334.724 344.008 334.724 344.76C334.724 345.272 334.876 345.696 335.18 346.032C335.5 346.352 335.9 346.608 336.38 346.8C336.86 346.992 337.516 347.2 338.348 347.424C339.452 347.728 340.348 348.032 341.036 348.336C341.74 348.64 342.332 349.112 342.812 349.752C343.308 350.376 343.556 351.216 343.556 352.272C343.556 353.12 343.324 353.92 342.86 354.672C342.412 355.424 341.748 356.032 340.868 356.496C340.004 356.944 338.98 357.168 337.796 357.168ZM364.352 340.32V357H361.616V345.576L356.528 357H354.632L349.52 345.576V357H346.784V340.32H349.736L355.592 353.4L361.424 340.32H364.352ZM373.444 357.168C372.324 357.168 371.316 356.976 370.42 356.592C369.524 356.192 368.82 355.632 368.308 354.912C367.796 354.192 367.54 353.352 367.54 352.392H370.468C370.532 353.112 370.812 353.704 371.308 354.168C371.82 354.632 372.532 354.864 373.444 354.864C374.388 354.864 375.124 354.64 375.652 354.192C376.18 353.728 376.444 353.136 376.444 352.416C376.444 351.856 376.276 351.4 375.94 351.048C375.62 350.696 375.212 350.424 374.716 350.232C374.236 350.04 373.564 349.832 372.7 349.608C371.612 349.32 370.724 349.032 370.036 348.744C369.364 348.44 368.788 347.976 368.308 347.352C367.828 346.728 367.588 345.896 367.588 344.856C367.588 343.896 367.828 343.056 368.308 342.336C368.788 341.616 369.46 341.064 370.324 340.68C371.188 340.296 372.188 340.104 373.324 340.104C374.94 340.104 376.26 340.512 377.284 341.328C378.324 342.128 378.9 343.232 379.012 344.64H375.988C375.94 344.032 375.652 343.512 375.124 343.08C374.596 342.648 373.9 342.432 373.036 342.432C372.252 342.432 371.612 342.632 371.116 343.032C370.62 343.432 370.372 344.008 370.372 344.76C370.372 345.272 370.524 345.696 370.828 346.032C371.148 346.352 371.548 346.608 372.028 346.8C372.508 346.992 373.164 347.2 373.996 347.424C375.1 347.728 375.996 348.032 376.684 348.336C377.388 348.64 377.98 349.112 378.46 349.752C378.956 350.376 379.204 351.216 379.204 352.272C379.204 353.12 378.972 353.92 378.508 354.672C378.06 355.424 377.396 356.032 376.516 356.496C375.652 356.944 374.628 357.168 373.444 357.168ZM387.755 348.624C387.755 346.992 388.131 345.528 388.883 344.232C389.651 342.936 390.683 341.928 391.979 341.208C393.291 340.472 394.723 340.104 396.275 340.104C398.051 340.104 399.627 340.544 401.003 341.424C402.395 342.288 403.403 343.52 404.027 345.12H400.739C400.307 344.24 399.707 343.584 398.939 343.152C398.171 342.72 397.283 342.504 396.275 342.504C395.171 342.504 394.187 342.752 393.323 343.248C392.459 343.744 391.779 344.456 391.283 345.384C390.803 346.312 390.563 347.392 390.563 348.624C390.563 349.856 390.803 350.936 391.283 351.864C391.779 352.792 392.459 353.512 393.323 354.024C394.187 354.52 395.171 354.768 396.275 354.768C397.283 354.768 398.171 354.552 398.939 354.12C399.707 353.688 400.307 353.032 400.739 352.152H404.027C403.403 353.752 402.395 354.984 401.003 355.848C399.627 356.712 398.051 357.144 396.275 357.144C394.707 357.144 393.275 356.784 391.979 356.064C390.683 355.328 389.651 354.312 388.883 353.016C388.131 351.72 387.755 350.256 387.755 348.624ZM406.318 350.328C406.318 349 406.59 347.824 407.134 346.8C407.694 345.776 408.446 344.984 409.39 344.424C410.35 343.848 411.406 343.56 412.558 343.56C413.598 343.56 414.502 343.768 415.27 344.184C416.054 344.584 416.678 345.088 417.142 345.696V343.776H419.902V357H417.142V355.032C416.678 355.656 416.046 356.176 415.246 356.592C414.446 357.008 413.534 357.216 412.51 357.216C411.374 357.216 410.334 356.928 409.39 356.352C408.446 355.76 407.694 354.944 407.134 353.904C406.59 352.848 406.318 351.656 406.318 350.328ZM417.142 350.376C417.142 349.464 416.95 348.672 416.566 348C416.198 347.328 415.71 346.816 415.102 346.464C414.494 346.112 413.838 345.936 413.134 345.936C412.43 345.936 411.774 346.112 411.166 346.464C410.558 346.8 410.062 347.304 409.678 347.976C409.31 348.632 409.126 349.416 409.126 350.328C409.126 351.24 409.31 352.04 409.678 352.728C410.062 353.416 410.558 353.944 411.166 354.312C411.79 354.664 412.446 354.84 413.134 354.84C413.838 354.84 414.494 354.664 415.102 354.312C415.71 353.96 416.198 353.448 416.566 352.776C416.95 352.088 417.142 351.288 417.142 350.376ZM439.503 343.56C440.543 343.56 441.471 343.776 442.287 344.208C443.119 344.64 443.767 345.28 444.231 346.128C444.711 346.976 444.951 348 444.951 349.2V357H442.239V349.608C442.239 348.424 441.943 347.52 441.351 346.896C440.759 346.256 439.951 345.936 438.927 345.936C437.903 345.936 437.087 346.256 436.479 346.896C435.887 347.52 435.591 348.424 435.591 349.608V357H432.879V349.608C432.879 348.424 432.583 347.52 431.991 346.896C431.399 346.256 430.591 345.936 429.567 345.936C428.543 345.936 427.727 346.256 427.119 346.896C426.527 347.52 426.231 348.424 426.231 349.608V357H423.495V343.776H426.231V345.288C426.679 344.744 427.247 344.32 427.935 344.016C428.623 343.712 429.359 343.56 430.143 343.56C431.199 343.56 432.143 343.784 432.975 344.232C433.807 344.68 434.447 345.328 434.895 346.176C435.295 345.376 435.919 344.744 436.767 344.28C437.615 343.8 438.527 343.56 439.503 343.56ZM451.169 345.72C451.633 345.112 452.265 344.6 453.065 344.184C453.865 343.768 454.769 343.56 455.777 343.56C456.929 343.56 457.977 343.848 458.921 344.424C459.881 344.984 460.633 345.776 461.177 346.8C461.721 347.824 461.993 349 461.993 350.328C461.993 351.656 461.721 352.848 461.177 353.904C460.633 354.944 459.881 355.76 458.921 356.352C457.977 356.928 456.929 357.216 455.777 357.216C454.769 357.216 453.873 357.016 453.089 356.616C452.305 356.2 451.665 355.688 451.169 355.08V363.288H448.433V343.776H451.169V345.72ZM459.209 350.328C459.209 349.416 459.017 348.632 458.633 347.976C458.265 347.304 457.769 346.8 457.145 346.464C456.537 346.112 455.881 345.936 455.177 345.936C454.489 345.936 453.833 346.112 453.209 346.464C452.601 346.816 452.105 347.328 451.721 348C451.353 348.672 451.169 349.464 451.169 350.376C451.169 351.288 451.353 352.088 451.721 352.776C452.105 353.448 452.601 353.96 453.209 354.312C453.833 354.664 454.489 354.84 455.177 354.84C455.881 354.84 456.537 354.664 457.145 354.312C457.769 353.944 458.265 353.416 458.633 352.728C459.017 352.04 459.209 351.24 459.209 350.328ZM463.786 350.328C463.786 349 464.058 347.824 464.602 346.8C465.162 345.776 465.914 344.984 466.858 344.424C467.818 343.848 468.874 343.56 470.026 343.56C471.066 343.56 471.97 343.768 472.738 344.184C473.522 344.584 474.146 345.088 474.61 345.696V343.776H477.37V357H474.61V355.032C474.146 355.656 473.514 356.176 472.714 356.592C471.914 357.008 471.002 357.216 469.978 357.216C468.842 357.216 467.802 356.928 466.858 356.352C465.914 355.76 465.162 354.944 464.602 353.904C464.058 352.848 463.786 351.656 463.786 350.328ZM474.61 350.376C474.61 349.464 474.418 348.672 474.034 348C473.666 347.328 473.178 346.816 472.57 346.464C471.962 346.112 471.306 345.936 470.602 345.936C469.898 345.936 469.242 346.112 468.634 346.464C468.026 346.8 467.53 347.304 467.146 347.976C466.778 348.632 466.594 349.416 466.594 350.328C466.594 351.24 466.778 352.04 467.146 352.728C467.53 353.416 468.026 353.944 468.634 354.312C469.258 354.664 469.914 354.84 470.602 354.84C471.306 354.84 471.962 354.664 472.57 354.312C473.178 353.96 473.666 353.448 474.034 352.776C474.418 352.088 474.61 351.288 474.61 350.376ZM482.356 342.024C481.86 342.024 481.444 341.856 481.108 341.52C480.772 341.184 480.604 340.768 480.604 340.272C480.604 339.776 480.772 339.36 481.108 339.024C481.444 338.688 481.86 338.52 482.356 338.52C482.836 338.52 483.244 338.688 483.58 339.024C483.916 339.36 484.084 339.776 484.084 340.272C484.084 340.768 483.916 341.184 483.58 341.52C483.244 341.856 482.836 342.024 482.356 342.024ZM483.7 343.776V357H480.964V343.776H483.7ZM492.62 343.56C493.644 343.56 494.548 343.768 495.332 344.184C496.132 344.584 496.756 345.088 497.204 345.696V343.776H499.964V357.216C499.964 358.432 499.708 359.512 499.196 360.456C498.684 361.416 497.94 362.168 496.964 362.712C496.004 363.256 494.852 363.528 493.508 363.528C491.716 363.528 490.228 363.104 489.044 362.256C487.86 361.424 487.188 360.288 487.028 358.848H489.74C489.948 359.536 490.388 360.088 491.06 360.504C491.748 360.936 492.564 361.152 493.508 361.152C494.612 361.152 495.5 360.816 496.172 360.144C496.86 359.472 497.204 358.496 497.204 357.216V355.008C496.74 355.632 496.108 356.16 495.308 356.592C494.524 357.008 493.628 357.216 492.62 357.216C491.468 357.216 490.412 356.928 489.452 356.352C488.508 355.76 487.756 354.944 487.196 353.904C486.652 352.848 486.38 351.656 486.38 350.328C486.38 349 486.652 347.824 487.196 346.8C487.756 345.776 488.508 344.984 489.452 344.424C490.412 343.848 491.468 343.56 492.62 343.56ZM497.204 350.376C497.204 349.464 497.012 348.672 496.628 348C496.26 347.328 495.772 346.816 495.164 346.464C494.556 346.112 493.9 345.936 493.196 345.936C492.492 345.936 491.836 346.112 491.228 346.464C490.62 346.8 490.124 347.304 489.74 347.976C489.372 348.632 489.188 349.416 489.188 350.328C489.188 351.24 489.372 352.04 489.74 352.728C490.124 353.416 490.62 353.944 491.228 354.312C491.852 354.664 492.508 354.84 493.196 354.84C493.9 354.84 494.556 354.664 495.164 354.312C495.772 353.96 496.26 353.448 496.628 352.776C497.012 352.088 497.204 351.288 497.204 350.376ZM510.23 343.56C511.27 343.56 512.198 343.776 513.014 344.208C513.846 344.64 514.494 345.28 514.958 346.128C515.422 346.976 515.654 348 515.654 349.2V357H512.942V349.608C512.942 348.424 512.646 347.52 512.054 346.896C511.462 346.256 510.654 345.936 509.63 345.936C508.606 345.936 507.79 346.256 507.182 346.896C506.59 347.52 506.294 348.424 506.294 349.608V357H503.558V343.776H506.294V345.288C506.742 344.744 507.31 344.32 507.998 344.016C508.702 343.712 509.446 343.56 510.23 343.56Z" fill="#2C2C2C"/>
<rect x="309" y="183" width="230" height="257" rx="7" stroke="#DBDBDB" stroke-width="2"/>
<path d="M718.25 264.73L715.85 265.433L672.897 278.5H665.75V293.5H672.899L676.589 294.614L676.533 294.788V294.848C675.329 298.808 677.559 303.211 681.689 304.456C681.708 304.461 681.731 304.45 681.746 304.456C685.726 305.665 690.132 303.462 691.357 299.299L691.413 299.123L715.85 306.567L718.25 307.268V264.73ZM714.5 269.77V302.23L673.775 289.806L673.544 289.75H669.5V282.25H673.543L673.777 282.194L714.5 269.77ZM680.163 295.726L687.839 298.013L687.783 298.187V298.244C687.138 300.437 684.809 301.51 682.803 300.882C680.609 300.239 679.481 297.968 680.107 295.96V295.904L680.163 295.726Z" fill="#222222"/>
<path d="M675.728 348.432C676.624 348.592 677.384 349.064 678.008 349.848C678.632 350.632 678.944 351.52 678.944 352.512C678.944 353.36 678.72 354.128 678.272 354.816C677.84 355.488 677.208 356.024 676.376 356.424C675.544 356.808 674.576 357 673.472 357H666.8V340.32H673.16C674.296 340.32 675.272 340.512 676.088 340.896C676.904 341.28 677.52 341.8 677.936 342.456C678.352 343.096 678.56 343.816 678.56 344.616C678.56 345.576 678.304 346.376 677.792 347.016C677.28 347.656 676.592 348.128 675.728 348.432ZM669.536 347.328H672.92C673.816 347.328 674.512 347.128 675.008 346.728C675.52 346.312 675.776 345.72 675.776 344.952C675.776 344.2 675.52 343.616 675.008 343.2C674.512 342.768 673.816 342.552 672.92 342.552H669.536V347.328ZM673.232 354.768C674.16 354.768 674.888 354.544 675.416 354.096C675.944 353.648 676.208 353.024 676.208 352.224C676.208 351.408 675.928 350.76 675.368 350.28C674.808 349.8 674.064 349.56 673.136 349.56H669.536V354.768H673.232ZM684.653 339.24V357H681.917V339.24H684.653ZM693.981 357.216C692.733 357.216 691.605 356.936 690.597 356.376C689.589 355.8 688.797 355 688.221 353.976C687.645 352.936 687.357 351.736 687.357 350.376C687.357 349.032 687.653 347.84 688.245 346.8C688.837 345.76 689.645 344.96 690.669 344.4C691.693 343.84 692.837 343.56 694.101 343.56C695.365 343.56 696.509 343.84 697.533 344.4C698.557 344.96 699.365 345.76 699.957 346.8C700.549 347.84 700.845 349.032 700.845 350.376C700.845 351.72 700.541 352.912 699.933 353.952C699.325 354.992 698.493 355.8 697.437 356.376C696.397 356.936 695.245 357.216 693.981 357.216ZM693.981 354.84C694.685 354.84 695.341 354.672 695.949 354.336C696.573 354 697.077 353.496 697.461 352.824C697.845 352.152 698.037 351.336 698.037 350.376C698.037 349.416 697.853 348.608 697.485 347.952C697.117 347.28 696.629 346.776 696.021 346.44C695.413 346.104 694.757 345.936 694.053 345.936C693.349 345.936 692.693 346.104 692.085 346.44C691.493 346.776 691.021 347.28 690.669 347.952C690.317 348.608 690.141 349.416 690.141 350.376C690.141 351.8 690.501 352.904 691.221 353.688C691.957 354.456 692.877 354.84 693.981 354.84ZM708.878 343.56C709.902 343.56 710.806 343.768 711.59 344.184C712.39 344.584 713.014 345.088 713.462 345.696V343.776H716.222V357.216C716.222 358.432 715.966 359.512 715.454 360.456C714.942 361.416 714.198 362.168 713.222 362.712C712.262 363.256 711.11 363.528 709.766 363.528C707.974 363.528 706.486 363.104 705.302 362.256C704.118 361.424 703.446 360.288 703.286 358.848H705.998C706.206 359.536 706.646 360.088 707.318 360.504C708.006 360.936 708.822 361.152 709.766 361.152C710.87 361.152 711.758 360.816 712.43 360.144C713.118 359.472 713.462 358.496 713.462 357.216V355.008C712.998 355.632 712.366 356.16 711.566 356.592C710.782 357.008 709.886 357.216 708.878 357.216C707.726 357.216 706.67 356.928 705.71 356.352C704.766 355.76 704.014 354.944 703.454 353.904C702.91 352.848 702.638 351.656 702.638 350.328C702.638 349 702.91 347.824 703.454 346.8C704.014 345.776 704.766 344.984 705.71 344.424C706.67 343.848 707.726 343.56 708.878 343.56ZM713.462 350.376C713.462 349.464 713.27 348.672 712.886 348C712.518 347.328 712.03 346.816 711.422 346.464C710.814 346.112 710.158 345.936 709.454 345.936C708.75 345.936 708.094 346.112 707.486 346.464C706.878 346.8 706.382 347.304 705.998 347.976C705.63 348.632 705.446 349.416 705.446 350.328C705.446 351.24 705.63 352.04 705.998 352.728C706.382 353.416 706.878 353.944 707.486 354.312C708.11 354.664 708.766 354.84 709.454 354.84C710.158 354.84 710.814 354.664 711.422 354.312C712.03 353.96 712.518 353.448 712.886 352.776C713.27 352.088 713.462 351.288 713.462 350.376Z" fill="#2C2C2C"/>
<rect x="577" y="183" width="230" height="257" rx="7" stroke="#DBDBDB" stroke-width="2"/>
<rect x="311" y="487" width="226" height="75" rx="8" fill="#1CE124"/>
<path d="M414.988 531H412.468L406.762 522.378V531H404.242V518.418H406.762L412.468 527.058V518.418H414.988V531ZM426.748 525.798C426.748 526.158 426.724 526.482 426.676 526.77H419.386C419.446 527.49 419.698 528.054 420.142 528.462C420.586 528.87 421.132 529.074 421.78 529.074C422.716 529.074 423.382 528.672 423.778 527.868H426.496C426.208 528.828 425.656 529.62 424.84 530.244C424.024 530.856 423.022 531.162 421.834 531.162C420.874 531.162 420.01 530.952 419.242 530.532C418.486 530.1 417.892 529.494 417.46 528.714C417.04 527.934 416.83 527.034 416.83 526.014C416.83 524.982 417.04 524.076 417.46 523.296C417.88 522.516 418.468 521.916 419.224 521.496C419.98 521.076 420.85 520.866 421.834 520.866C422.782 520.866 423.628 521.07 424.372 521.478C425.128 521.886 425.71 522.468 426.118 523.224C426.538 523.968 426.748 524.826 426.748 525.798ZM424.138 525.078C424.126 524.43 423.892 523.914 423.436 523.53C422.98 523.134 422.422 522.936 421.762 522.936C421.138 522.936 420.61 523.128 420.178 523.512C419.758 523.884 419.5 524.406 419.404 525.078H424.138ZM434.096 531L432.044 527.904L430.226 531H427.526L430.784 525.996L427.49 521.028H430.334L432.368 524.106L434.204 521.028H436.904L433.628 525.996L436.94 531H434.096ZM441.242 523.098V527.922C441.242 528.258 441.32 528.504 441.476 528.66C441.644 528.804 441.92 528.876 442.304 528.876H443.474V531H441.89C439.766 531 438.704 529.968 438.704 527.904V523.098H437.516V521.028H438.704V518.562H441.242V521.028H443.474V523.098H441.242Z" fill="white"/>
</svg>
