<svg width="14" height="11" viewBox="0 0 14 11" fill="none" xmlns="http://www.w3.org/2000/svg">
<path d="M13.6665 1.06667C13.5416 0.942498 13.3726 0.872803 13.1965 0.872803C13.0203 0.872803 12.8514 0.942498 12.7265 1.06667L5.32646 8.43333L1.32646 4.43333C1.20446 4.30161 1.03513 4.22374 0.855722 4.21687C0.676312 4.20999 0.501519 4.27466 0.369795 4.39666C0.238071 4.51866 0.160206 4.68799 0.153329 4.8674C0.146453 5.04681 0.211128 5.22161 0.333128 5.35333L5.32646 10.3333L13.6665 2.01333C13.7289 1.95136 13.7785 1.87762 13.8124 1.79638C13.8462 1.71514 13.8637 1.62801 13.8637 1.54C13.8637 1.45199 13.8462 1.36485 13.8124 1.28361C13.7785 1.20237 13.7289 1.12864 13.6665 1.06667Z" fill="#1CE124"/>
</svg>
