<svg width="24" height="24" viewBox="0 0 24 24" fill="none" xmlns="http://www.w3.org/2000/svg">
<path d="M20 6.75C20.7293 6.75 21.4288 6.46027 21.9445 5.94454C22.4603 5.42882 22.75 4.72935 22.75 4C22.75 3.27065 22.4603 2.57118 21.9445 2.05546C21.4288 1.53973 20.7293 1.25 20 1.25C19.2707 1.25 18.5712 1.53973 18.0555 2.05546C17.5397 2.57118 17.25 3.27065 17.25 4C17.25 4.72935 17.5397 5.42882 18.0555 5.94454C18.5712 6.46027 19.2707 6.75 20 6.75Z" fill="#4A4A4A"/>
<path d="M19.04 8.15001C18.2612 7.97394 17.5483 7.58085 16.9837 7.01629C16.4192 6.45172 16.0261 5.73877 15.85 4.96001C15.72 4.35001 15.71 3.76001 15.82 3.20001C15.8518 3.05529 15.8506 2.90527 15.8166 2.76106C15.7826 2.61685 15.7165 2.48214 15.6234 2.3669C15.5302 2.25167 15.4124 2.15886 15.2785 2.09535C15.1446 2.03185 14.9982 1.99926 14.85 2.00001H7C4.24 2.00001 2 4.24001 2 7.00001V13.95C2 16.71 4.24 18.95 7 18.95H8.5C8.78 18.95 9.14 19.13 9.3 19.35L10.8 21.34C11.46 22.22 12.54 22.22 13.2 21.34L14.7 19.35C14.7931 19.2258 14.9139 19.125 15.0528 19.0556C15.1916 18.9862 15.3448 18.95 15.5 18.95H17.01C19.77 18.95 22 16.72 22 13.96V9.15001C22 8.52001 21.42 8.06001 20.8 8.18001C20.24 8.28001 19.65 8.28001 19.04 8.15001ZM8 12C7.44 12 7 11.55 7 11C7 10.45 7.44 10 8 10C8.55 10 9 10.45 9 11C9 11.55 8.56 12 8 12ZM12 12C11.44 12 11 11.55 11 11C11 10.45 11.44 10 12 10C12.55 10 13 10.45 13 11C13 11.55 12.56 12 12 12ZM16 12C15.44 12 15 11.55 15 11C15 10.45 15.44 10 16 10C16.55 10 17 10.45 17 11C17 11.55 16.56 12 16 12Z" fill="#4A4A4A"/>
</svg>
