<svg xmlns="http://www.w3.org/2000/svg" width="57" height="57" viewBox="0 0 57 57">
  <g id="Group_175" data-name="Group 175" transform="translate(-179 -198)">
    <rect id="Rectangle_106" data-name="Rectangle 106" width="57" height="57" rx="8" transform="translate(179 198)" fill="#e3eeff" opacity="0.562"/>
    <g id="vuesax_bold_profile-2user" data-name="vuesax/bold/profile-2user" transform="translate(193.82 212.82)">
      <g id="profile-2user" transform="translate(0 0)">
        <path id="Vector" d="M5.415,0a5.41,5.41,0,0,0-.137,10.819.92.92,0,0,1,.251,0h.08A5.411,5.411,0,0,0,5.415,0Z" transform="translate(4.845 2.28)" fill="#3377e8"/>
        <path id="Vector-2" data-name="Vector" d="M13.817,1.59a11.319,11.319,0,0,0-11.571,0A4.5,4.5,0,0,0,0,5.273,4.462,4.462,0,0,0,2.234,8.932a10.533,10.533,0,0,0,5.791,1.607,10.533,10.533,0,0,0,5.791-1.607A4.5,4.5,0,0,0,16.051,5.25,4.489,4.489,0,0,0,13.817,1.59Z" transform="translate(2.234 14.541)" fill="#3377e8"/>
        <path id="Vector-3" data-name="Vector" d="M6.7,3.743A4.08,4.08,0,0,1,3.135,8.155H3.078a.533.533,0,0,0-.194.023A4.09,4.09,0,0,1,0,7.232,5.217,5.217,0,0,0,1.71,2.9,5.291,5.291,0,0,0,.832.414,4.093,4.093,0,0,1,6.7,3.743Z" transform="translate(16.085 4.624)" fill="#3377e8"/>
        <path id="Vector-4" data-name="Vector" d="M9.12,4.663A3.472,3.472,0,0,1,7.136,7.376a8.047,8.047,0,0,1-4,.889A4.069,4.069,0,0,0,4.526,5.621a4.492,4.492,0,0,0-1.9-3.853A9.411,9.411,0,0,0,0,.331,8.91,8.91,0,0,1,7.638,1.665,3.464,3.464,0,0,1,9.12,4.663Z" transform="translate(15.949 14.25)" fill="#3377e8"/>
        <path id="Vector-5" data-name="Vector" d="M0,0H27.36V27.36H0Z" transform="translate(27.36 27.36) rotate(180)" fill="none" opacity="0"/>
      </g>
    </g>
  </g>
</svg>
