<svg width="23" height="22" viewBox="0 0 23 22" fill="none" xmlns="http://www.w3.org/2000/svg">
<path d="M21.5 21L19.5 19M11 20C12.2476 20 13.4829 19.7543 14.6355 19.2769C15.7881 18.7994 16.8354 18.0997 17.7175 17.2175C18.5997 16.3354 19.2994 15.2881 19.7769 14.1355C20.2543 12.9829 20.5 11.7476 20.5 10.5C20.5 9.25244 20.2543 8.0171 19.7769 6.86451C19.2994 5.71191 18.5997 4.66464 17.7175 3.78249C16.8354 2.90033 15.7881 2.20056 14.6355 1.72314C13.4829 1.24572 12.2476 1 11 1C8.48044 1 6.06408 2.00089 4.28249 3.78249C2.50089 5.56408 1.5 7.98044 1.5 10.5C1.5 13.0196 2.50089 15.4359 4.28249 17.2175C6.06408 18.9991 8.48044 20 11 20Z" stroke="#2C2C2C" stroke-width="1.5" stroke-linecap="round" stroke-linejoin="round"/>
</svg>
