<svg width="24" height="24" viewBox="0 0 24 24" fill="none" xmlns="http://www.w3.org/2000/svg">
<path d="M11.0001 2.14282C13.2028 2.14454 15.3282 2.92446 16.9732 4.33464C18.6183 5.74482 19.6685 7.68719 19.9247 9.79332C20.1809 11.8994 19.6253 14.0229 18.3632 15.7608C17.1011 17.4987 15.2203 18.7303 13.0777 19.2219C10.935 19.7135 8.67937 19.431 6.7387 18.4279C4.79802 17.4248 3.30726 15.7709 2.54916 13.7799C1.79106 11.7889 1.81835 9.59935 2.62586 7.62646C3.43337 5.65358 4.96493 4.0346 6.93005 3.07663" stroke="#2F9217" stroke-width="1.5" stroke-linecap="round" stroke-linejoin="round"/>
<path d="M19.0699 20.405C19.5999 21.9453 20.8099 22.0993 21.7399 20.7516C22.5999 19.5193 22.0399 18.5085 20.4999 18.5085C20.2551 18.4857 20.0084 18.5249 19.7841 18.6222C19.5599 18.7194 19.3659 18.8714 19.2215 19.063C19.077 19.2546 18.987 19.4792 18.9604 19.7146C18.9338 19.95 18.9716 20.188 19.0699 20.405Z" stroke="#2F9217" stroke-width="1.5" stroke-linecap="round" stroke-linejoin="round"/>
</svg>
