<svg width="24" height="24" viewBox="0 0 24 24" fill="none" xmlns="http://www.w3.org/2000/svg">
<path d="M20.0932 7.34534L8.67986 1.63867C1.0132 -2.20133 -2.13347 0.945335 1.70653 8.612L2.86653 10.932C3.19986 11.612 3.19986 12.3987 2.86653 13.0787L1.70653 15.3853C-2.13347 23.052 0.999863 26.1987 8.67986 22.3587L20.0932 16.652C25.2132 14.092 25.2132 9.90534 20.0932 7.34534ZM15.7865 12.9987H8.58653C8.03986 12.9987 7.58653 12.5453 7.58653 11.9987C7.58653 11.452 8.03986 10.9987 8.58653 10.9987H15.7865C16.3332 10.9987 16.7865 11.452 16.7865 11.9987C16.7865 12.5453 16.3332 12.9987 15.7865 12.9987Z" fill="white"/>
</svg>
