<svg width="20" height="20" viewBox="0 0 20 20" fill="none" xmlns="http://www.w3.org/2000/svg">
<path d="M10.0002 12C4.99016 12 0.910156 15.36 0.910156 19.5C0.910156 19.78 1.13016 20 1.41016 20H18.5902C18.8702 20 19.0902 19.78 19.0902 19.5C19.0902 15.36 15.0102 12 10.0002 12ZM10.0002 0C8.82016 0 7.74016 0.41 6.88016 1.1C6.29214 1.56546 5.81742 2.1583 5.49177 2.83385C5.16612 3.50941 4.99802 4.25006 5.00016 5C5.00016 5.94 5.26016 6.82 5.73016 7.57C6.16875 8.31172 6.79341 8.92608 7.54233 9.35228C8.29124 9.77848 9.13846 10.0017 10.0002 10C11.2602 10 12.4102 9.54 13.2902 8.75C13.6802 8.42 14.0202 8.02 14.2802 7.57C14.7402 6.82 15.0002 5.94 15.0002 5C15.0002 2.24 12.7602 0 10.0002 0ZM12.5902 4.46L9.92016 6.92C9.74016 7.09 9.51016 7.17 9.28016 7.17C9.15779 7.17063 9.03651 7.1471 8.92325 7.10077C8.80999 7.05444 8.707 6.98621 8.62016 6.9L7.39016 5.66C7.30229 5.57297 7.23255 5.46939 7.18495 5.35525C7.13735 5.24111 7.11285 5.11867 7.11285 4.995C7.11285 4.87133 7.13735 4.74889 7.18495 4.63475C7.23255 4.52061 7.30229 4.41703 7.39016 4.33C7.76016 3.96 8.35016 3.96 8.72016 4.33L9.31016 4.92L11.3202 3.07C11.7002 2.72 12.2902 2.74 12.6402 3.12C12.9902 3.51 12.9702 4.11 12.5902 4.46Z" fill="#1CE124"/>
</svg>
