<svg width="64" height="64" viewBox="0 0 64 64" fill="none" xmlns="http://www.w3.org/2000/svg">
<rect width="64" height="64" rx="32" fill="#6C1EEB" fill-opacity="0.15"/>
<path d="M32 18C29.0836 18.0033 26.2877 19.1633 24.2255 21.2255C22.1633 23.2877 21.0033 26.0836 21 29C21 38.4125 31 45.5212 31.4263 45.8188C31.5944 45.9365 31.7947 45.9997 32 45.9997C32.2053 45.9997 32.4056 45.9365 32.5737 45.8188C33 45.5212 43 38.4125 43 29C42.9967 26.0836 41.8367 23.2877 39.7745 21.2255C37.7123 19.1633 34.9164 18.0033 32 18ZM32 25C32.7911 25 33.5645 25.2346 34.2223 25.6741C34.8801 26.1136 35.3928 26.7384 35.6955 27.4693C35.9983 28.2002 36.0775 29.0044 35.9231 29.7804C35.7688 30.5563 35.3878 31.269 34.8284 31.8284C34.269 32.3878 33.5563 32.7688 32.7804 32.9231C32.0044 33.0775 31.2002 32.9983 30.4693 32.6955C29.7384 32.3928 29.1136 31.8801 28.6741 31.2223C28.2346 30.5645 28 29.7911 28 29C28 27.9391 28.4214 26.9217 29.1716 26.1716C29.9217 25.4214 30.9391 25 32 25Z" fill="#6C1EEB"/>
</svg>
