<svg width="64" height="64" viewBox="0 0 64 64" fill="none" xmlns="http://www.w3.org/2000/svg">
<rect width="64" height="64" rx="32" fill="#6C1EEB" fill-opacity="0.15"/>
<path d="M44.985 37.8852C44.7621 39.579 43.9303 41.1338 42.6449 42.2591C41.3595 43.3844 39.7084 44.0033 38 44.0002C28.075 44.0002 20 35.9252 20 26.0002C19.9969 24.2918 20.6159 22.6408 21.7412 21.3554C22.8665 20.0699 24.4212 19.2381 26.115 19.0152C26.5433 18.9629 26.9771 19.0506 27.3515 19.265C27.7259 19.4795 28.0209 19.8093 28.1925 20.2052L30.8325 26.099V26.114C30.9639 26.4171 31.0181 26.7479 30.9904 27.0771C30.9627 27.4062 30.8539 27.7234 30.6738 28.0002C30.6513 28.034 30.6275 28.0652 30.6025 28.0965L28 31.1815C28.9363 33.084 30.9263 35.0565 32.8538 35.9952L35.8963 33.4065C35.9261 33.3814 35.9574 33.358 35.99 33.3365C36.2666 33.152 36.5849 33.0394 36.916 33.0088C37.2471 32.9783 37.5806 33.0307 37.8863 33.1615L37.9025 33.169L43.7913 35.8077C44.1879 35.9787 44.5185 36.2735 44.7337 36.6479C44.9489 37.0224 45.037 37.4565 44.985 37.8852Z" fill="#6C1EEB"/>
</svg>