<svg width="64" height="64" viewBox="0 0 64 64" fill="none" xmlns="http://www.w3.org/2000/svg">
<rect width="64" height="64" rx="32" fill="#6C1EEB" fill-opacity="0.15"/>
<path d="M44 22H37C35.9391 22 34.9217 22.4214 34.1716 23.1716C33.4214 23.9217 33 24.9391 33 26V37C33 37.2652 32.8946 37.5196 32.7071 37.7071C32.5196 37.8946 32.2652 38 32 38C31.7348 38 31.4804 37.8946 31.2929 37.7071C31.1054 37.5196 31 37.2652 31 37V26C31 24.9391 30.5786 23.9217 29.8284 23.1716C29.0783 22.4214 28.0609 22 27 22H20C19.4696 22 18.9609 22.2107 18.5858 22.5858C18.2107 22.9609 18 23.4696 18 24V40C18 40.5304 18.2107 41.0391 18.5858 41.4142C18.9609 41.7893 19.4696 42 20 42H28C28.7956 42 29.5587 42.3161 30.1213 42.8787C30.6839 43.4413 31 44.2044 31 45C31 45.2652 31.1054 45.5196 31.2929 45.7071C31.4804 45.8946 31.7348 46 32 46C32.2652 46 32.5196 45.8946 32.7071 45.7071C32.8946 45.5196 33 45.2652 33 45C33 44.2044 33.3161 43.4413 33.8787 42.8787C34.4413 42.3161 35.2044 42 36 42H44C44.5304 42 45.0391 41.7893 45.4142 41.4142C45.7893 41.0391 46 40.5304 46 40V24C46 23.4696 45.7893 22.9609 45.4142 22.5858C45.0391 22.2107 44.5304 22 44 22ZM42 37H37C36.7348 37 36.4804 36.8946 36.2929 36.7071C36.1054 36.5196 36 36.2652 36 36C36 35.7348 36.1054 35.4804 36.2929 35.2929C36.4804 35.1054 36.7348 35 37 35H42C42.2652 35 42.5196 35.1054 42.7071 35.2929C42.8946 35.4804 43 35.7348 43 36C43 36.2652 42.8946 36.5196 42.7071 36.7071C42.5196 36.8946 42.2652 37 42 37ZM42 33H37C36.7348 33 36.4804 32.8946 36.2929 32.7071C36.1054 32.5196 36 32.2652 36 32C36 31.7348 36.1054 31.4804 36.2929 31.2929C36.4804 31.1054 36.7348 31 37 31H42C42.2652 31 42.5196 31.1054 42.7071 31.2929C42.8946 31.4804 43 31.7348 43 32C43 32.2652 42.8946 32.5196 42.7071 32.7071C42.5196 32.8946 42.2652 33 42 33ZM42 29H37C36.7348 29 36.4804 28.8946 36.2929 28.7071C36.1054 28.5196 36 28.2652 36 28C36 27.7348 36.1054 27.4804 36.2929 27.2929C36.4804 27.1054 36.7348 27 37 27H42C42.2652 27 42.5196 27.1054 42.7071 27.2929C42.8946 27.4804 43 27.7348 43 28C43 28.2652 42.8946 28.5196 42.7071 28.7071C42.5196 28.8946 42.2652 29 42 29Z" fill="#6C1EEB"/>
</svg>