<svg width="65" height="64" viewBox="0 0 65 64" fill="none" xmlns="http://www.w3.org/2000/svg">
<rect x="0.5" width="64" height="64" rx="32" fill="#6C1EEB" fill-opacity="0.15"/>
<path d="M45.3162 23.0513L33.3162 19.0513C33.111 18.9829 32.889 18.9829 32.6838 19.0513L20.6837 23.0513C20.4846 23.1177 20.3114 23.2451 20.1887 23.4153C20.066 23.5856 20 23.7902 20 24.0001V34.0001C20 34.2653 20.1054 34.5196 20.2929 34.7072C20.4804 34.8947 20.7348 35.0001 21 35.0001C21.2652 35.0001 21.5196 34.8947 21.7071 34.7072C21.8946 34.5196 22 34.2653 22 34.0001V25.3876L26.1987 26.7863C25.0832 28.5886 24.7285 30.7599 25.2124 32.8235C25.6964 34.887 26.9795 36.6742 28.78 37.7926C26.53 38.6751 24.585 40.2713 23.1625 42.4538C23.0885 42.5638 23.0371 42.6873 23.0113 42.8173C22.9855 42.9473 22.9858 43.0811 23.0122 43.211C23.0385 43.3409 23.0905 43.4642 23.1649 43.5739C23.2394 43.6835 23.3349 43.7772 23.4459 43.8496C23.5569 43.922 23.6812 43.9717 23.8115 43.9956C23.9419 44.0195 24.0757 44.0173 24.2051 43.9891C24.3346 43.9609 24.4572 43.9072 24.5658 43.8312C24.6743 43.7552 24.7667 43.6583 24.8375 43.5463C26.7213 40.6563 29.6962 39.0001 33 39.0001C36.3037 39.0001 39.2788 40.6563 41.1625 43.5463C41.3092 43.7643 41.5357 43.9158 41.7932 43.9681C42.0507 44.0204 42.3184 43.9692 42.5385 43.8257C42.7586 43.6821 42.9133 43.4578 42.9692 43.2011C43.0252 42.9443 42.9779 42.6759 42.8375 42.4538C41.415 40.2713 39.4625 38.6751 37.22 37.7926C39.0188 36.6743 40.3007 34.8882 40.7846 32.8262C41.2684 30.7641 40.9148 28.5943 39.8013 26.7926L45.3162 24.9551C45.5154 24.8887 45.6886 24.7614 45.8114 24.5911C45.9342 24.4208 46.0002 24.2162 46.0002 24.0063C46.0002 23.7964 45.9342 23.5918 45.8114 23.4215C45.6886 23.2512 45.5154 23.1239 45.3162 23.0576V23.0513ZM39 31.0001C39.0003 31.9486 38.7756 32.8838 38.3445 33.7287C37.9134 34.5736 37.2881 35.3043 36.5199 35.8608C35.7517 36.4173 34.8625 36.7837 33.9253 36.93C32.9881 37.0763 32.0295 36.9983 31.1283 36.7024C30.2271 36.4065 29.4088 35.9011 28.7407 35.2277C28.0726 34.5544 27.5737 33.7322 27.2849 32.8287C26.9961 31.9251 26.9256 30.966 27.0792 30.0299C27.2329 29.0939 27.6063 28.2076 28.1687 27.4438L32.6838 28.9438C32.889 29.0123 33.111 29.0123 33.3162 28.9438L37.8312 27.4438C38.591 28.4738 39.0006 29.7202 39 31.0001Z" fill="#6C1EEB"/>
</svg>