<svg width="64" height="64" viewBox="0 0 64 64" fill="none" xmlns="http://www.w3.org/2000/svg">
<rect width="64" height="64" rx="32" fill="#6C1EEB" fill-opacity="0.15"/>
<path d="M36.7225 44H42C42.5304 44 43.0391 43.7893 43.4142 43.4142C43.7893 43.0391 44 42.5304 44 42V37.2938C43.9991 37.1298 43.958 36.9685 43.8801 36.8242C43.8022 36.6798 43.6901 36.5569 43.5535 36.4661C43.4169 36.3753 43.2601 36.3195 43.0969 36.3037C42.9336 36.2878 42.769 36.3123 42.6175 36.375C42.2631 36.5214 41.8834 36.5965 41.5 36.5963C39.8463 36.5963 38.5 35.2087 38.5 33.505C38.5 31.8012 39.8463 30.4137 41.5 30.4137C41.8834 30.4135 42.2631 30.4886 42.6175 30.635C42.7698 30.6981 42.9353 30.7225 43.0994 30.7061C43.2634 30.6897 43.4208 30.6331 43.5577 30.5411C43.6945 30.4492 43.8065 30.3249 43.8836 30.1792C43.9608 30.0336 44.0008 29.8711 44 29.7063V25C44 24.4696 43.7893 23.9609 43.4142 23.5858C43.0391 23.2107 42.5304 23 42 23H37.4725C37.4911 22.834 37.5003 22.6671 37.5 22.5C37.5 21.3065 37.0259 20.1619 36.182 19.318C35.3381 18.4741 34.1935 18 33 18C31.8065 18 30.6619 18.4741 29.818 19.318C28.9741 20.1619 28.5 21.3065 28.5 22.5C28.4997 22.6671 28.5089 22.834 28.5275 23H24C23.4696 23 22.9609 23.2107 22.5858 23.5858C22.2107 23.9609 22 24.4696 22 25V29.0275C21.834 29.0089 21.6671 28.9997 21.5 29C20.3065 29 19.1619 29.4741 18.318 30.318C17.4741 31.1619 17 32.3065 17 33.5C17 34.6935 17.4741 35.8381 18.318 36.682C19.1619 37.5259 20.3065 38 21.5 38C21.6671 38.0003 21.834 37.9911 22 37.9725V42C22 42.5304 22.2107 43.0391 22.5858 43.4142C22.9609 43.7893 23.4696 44 24 44H29.2775" fill="#6C1EEB"/>
</svg>
