<svg width="64" height="64" viewBox="0 0 64 64" fill="none" xmlns="http://www.w3.org/2000/svg">
<rect width="64" height="64" rx="32" fill="#6C1EEB" fill-opacity="0.15"/>
<path d="M46 27.75C46 36.5 33.0262 43.5825 32.4737 43.875C32.3281 43.9533 32.1654 43.9943 32 43.9943C31.8346 43.9943 31.6719 43.9533 31.5262 43.875C30.9738 43.5825 18 36.5 18 27.75C18.0023 25.6953 18.8196 23.7254 20.2725 22.2725C21.7254 20.8196 23.6953 20.0023 25.75 20C28.3313 20 30.5912 21.11 32 22.9862C33.4088 21.11 35.6688 20 38.25 20C40.3047 20.0023 42.2746 20.8196 43.7275 22.2725C45.1804 23.7254 45.9977 25.6953 46 27.75Z" fill="#6C1EEB"/>
</svg>
